<svg width="402" height="272" viewBox="0 0 402 272" fill="none" xmlns="http://www.w3.org/2000/svg">
<g filter="url(#filter0_d_0_304)">
<rect x="48" y="24" width="306" height="176" rx="6" fill="white"/>
</g>
<circle cx="76" cy="60" r="20" fill="#F7CC47"/>
<rect x="56" y="94" width="75" height="14" rx="2" fill="#F5DED1"/>
<rect x="56" y="116" width="126" height="6" rx="3" fill="#F5DED1"/>
<path fill-rule="evenodd" clip-rule="evenodd" d="M273.5 92.6701C266.456 93.8968 259.32 94.5195 252.169 94.5313V94.5305C251.428 94.5419 251.211 95.7467 251.989 95.8639C260.225 96.974 268.593 96.6291 276.709 94.8451C291.131 91.8586 304.693 85.6665 316.388 76.729C322.279 72.2616 327.639 67.1352 332.362 61.4502C334.869 58.3734 337.184 55.1495 339.295 51.7971L339.311 51.7192C339.728 49.641 340.151 47.5659 340.588 45.4933C340.873 45.4539 341.158 45.4172 341.444 45.383C342.916 45.212 343.002 42.9878 341.444 43.021C341.334 43.0227 341.224 43.0251 341.114 43.0279C341.213 42.5675 341.313 42.1072 341.415 41.647L344.292 42.857C342.783 45.9246 341.115 48.9086 339.295 51.7971L338.361 56.4845C338.504 56.2424 338.766 56.0874 339.057 56.0874C339.413 56.0874 339.727 56.3194 339.831 56.659C340.125 57.8426 340.29 59.0179 340.458 60.2071C340.514 60.6076 340.571 61.0098 340.633 61.4143L337.41 61.8509C337.436 62.5523 337.912 63.1829 338.621 63.3781C339.476 63.6133 340.364 63.1326 340.633 62.2893C341.112 60.6398 341.463 58.9561 341.685 57.253L342.622 52.4075C343.265 49.1053 343.874 45.7962 344.451 42.4804C344.642 41.7229 344.256 40.9387 343.539 40.6269C342.815 40.3166 341.973 40.5922 341.574 41.2699C341.301 41.8635 341.02 42.4536 340.733 43.0401C338.657 43.1183 336.593 43.3933 334.568 43.8615C333.401 44.1458 332.254 44.5096 331.136 44.9504C330.146 45.2017 329.251 45.7345 328.557 46.4842C328.399 46.7565 328.376 47.0866 328.495 47.3781C328.614 47.6697 328.861 47.8898 329.164 47.9742C330.148 48.0141 331.128 47.8237 332.026 47.4182C332.965 47.1309 333.917 46.8863 334.871 46.6413C334.951 46.6209 335.03 46.6006 335.109 46.5802C336.519 46.2134 337.945 45.9115 339.382 45.6755C336.346 51.3437 332.652 56.6419 328.371 61.4588C318.891 72.2339 307.132 80.7733 293.943 86.4605C287.383 89.2857 280.525 91.3685 273.5 92.6701ZM337.896 58.5242C338.016 57.9352 338.152 57.3494 338.304 56.7673L338.361 56.4845C338.329 56.5386 338.303 56.597 338.284 56.659C338.126 57.2819 338.003 57.9026 337.896 58.5242ZM337.896 58.5242C337.672 59.6244 337.503 60.7355 337.392 61.8534L337.41 61.8509C337.405 61.7073 337.419 61.5607 337.453 61.4143C337.515 61.0215 337.572 60.631 337.63 60.242C337.714 59.667 337.798 59.0952 337.896 58.5242Z" fill="#EF6D58"/>
<rect x="56" y="160" width="289" height="6" rx="3" fill="#F4E4FF"/>
<rect x="56" y="160" width="113" height="6" rx="3" fill="#B550F8"/>
<defs>
<filter id="filter0_d_0_304" x="0" y="0" width="402" height="272" filterUnits="userSpaceOnUse" color-interpolation-filters="sRGB">
<feFlood flood-opacity="0" result="BackgroundImageFix"/>
<feColorMatrix in="SourceAlpha" type="matrix" values="0 0 0 0 0 0 0 0 0 0 0 0 0 0 0 0 0 0 127 0" result="hardAlpha"/>
<feOffset dy="24"/>
<feGaussianBlur stdDeviation="24"/>
<feColorMatrix type="matrix" values="0 0 0 0 0.333333 0 0 0 0 0.117647 0 0 0 0 0 0 0 0 0.04 0"/>
<feBlend mode="normal" in2="BackgroundImageFix" result="effect1_dropShadow_0_304"/>
<feBlend mode="normal" in="SourceGraphic" in2="effect1_dropShadow_0_304" result="shape"/>
</filter>
</defs>
</svg>
